<svg width="25" height="25" viewBox="0 0 25 25" fill="none" xmlns="http://www.w3.org/2000/svg">
<path d="M18.559 12.6906L16.6527 13.2406C16.4152 13.2406 16.4371 12.8641 16.4871 12.7813L17.1981 11.3266C17.2117 11.3031 17.2307 11.2833 17.2535 11.2686C17.2763 11.2539 17.3022 11.2448 17.3292 11.2421C17.3561 11.2393 17.3834 11.243 17.4087 11.2528C17.4339 11.2626 17.4565 11.2782 17.4746 11.2984C17.8219 11.6739 18.1919 12.0277 18.5824 12.3578C18.6809 12.4312 18.6965 12.6516 18.559 12.6906ZM16.2262 10.7391C15.5924 11.4099 15.0208 12.1368 14.5184 12.9109C14.4574 13.0047 14.2887 13.0109 14.2231 12.8297C13.9902 12.2047 13.784 11.6141 13.7309 11.0984C13.7318 11.0693 13.7397 11.0408 13.7538 11.0152C13.7679 10.9897 13.7879 10.9679 13.8121 10.9516C14.1521 10.6805 14.4751 10.3888 14.7793 10.0781C14.7931 10.0618 14.8108 10.0494 14.8308 10.042C14.8508 10.0346 14.8723 10.0325 14.8934 10.0359C15.2891 10.1057 15.6727 10.232 16.0324 10.4109C16.1434 10.4688 16.3449 10.6172 16.2262 10.7391ZM12.234 12.7813C12.1949 12.8891 12.1074 13.0344 11.9809 12.9797C11.3434 12.7516 10.2262 11.9922 9.33868 11.5031C9.31143 11.4851 9.28952 11.46 9.27522 11.4306C9.26093 11.4012 9.25479 11.3685 9.25743 11.3359C9.22717 11.0745 9.26877 10.8098 9.37775 10.5703C9.42897 10.4876 9.49779 10.4172 9.57931 10.3641C9.92306 10.1797 10.2496 10.0031 10.5543 9.85938C10.6341 9.80179 10.7301 9.7708 10.8285 9.7708C10.927 9.7708 11.0229 9.80179 11.1027 9.85938C11.5108 10.2064 11.9364 10.5324 12.3777 10.8359C12.4015 10.85 12.422 10.869 12.4379 10.8917C12.4538 10.9143 12.4647 10.94 12.4699 10.9672C12.5241 11.5813 12.4436 12.1999 12.234 12.7797M9.56837 14.1109C8.79962 13.8594 7.69337 13.5016 6.75587 13.2219C6.72593 13.2192 6.69786 13.2062 6.67644 13.1851C6.65503 13.164 6.6416 13.1361 6.63846 13.1062C6.63533 13.0763 6.64267 13.0463 6.65924 13.0212C6.67581 12.9961 6.70058 12.9776 6.72931 12.9688C7.12929 12.7626 7.50998 12.521 7.86681 12.2469C7.90245 12.2169 7.94374 12.1944 7.98822 12.1807C8.0327 12.167 8.07948 12.1623 8.1258 12.167C8.17212 12.1717 8.21703 12.1856 8.25789 12.2079C8.29875 12.2302 8.33472 12.2604 8.36368 12.2969C8.81681 12.8641 9.49181 13.3516 9.82618 13.7469C9.98243 13.9031 9.78556 14.1766 9.56681 14.1109M24.4481 11.4422L23.9527 10.2594C23.8075 9.87229 23.7416 9.45995 23.759 9.04688L23.884 7.50469C23.8906 7.3177 23.8473 7.13233 23.7586 6.96758C23.6699 6.80283 23.539 6.66464 23.3793 6.56719L21.2731 5.42656C20.9606 5.26094 20.7121 4.90312 20.709 4.63125C20.7059 4.35937 20.4465 4.00625 20.1356 3.85L18.6309 3.09531C18.2534 2.92465 17.8464 2.82861 17.4324 2.8125H15.1449C14.7377 2.83284 14.3438 2.96414 14.0059 3.19219L13.0496 3.91094C12.7118 4.1392 12.3178 4.27052 11.9106 4.29063H9.35118C8.98233 4.29817 8.62872 4.43917 8.35587 4.6875C8.08332 4.93739 7.73153 5.08342 7.36212 5.1L6.784 5.1125C6.38324 5.14377 6.00462 5.30886 5.709 5.58125L5.55275 5.7375C5.25719 6.00746 4.87743 6.16699 4.47775 6.18906H3.96681C3.57153 6.21133 3.20049 6.38677 2.93243 6.67813L1.50744 8.42813C1.40076 8.56363 1.3466 8.73309 1.35493 8.90534C1.36325 9.07759 1.4335 9.24104 1.55275 9.36563L1.69962 9.5125C1.75915 9.57071 1.80645 9.64022 1.83874 9.71696C1.87103 9.7937 1.88767 9.87612 1.88767 9.95938C1.88767 10.0426 1.87103 10.1251 1.83874 10.2018C1.80645 10.2785 1.75915 10.348 1.69962 10.4063L0.796497 11.3109C0.669468 11.4551 0.575641 11.6254 0.521644 11.8098C0.467646 11.9942 0.454794 12.1882 0.483997 12.3781L0.718372 13.4875C0.767426 13.6717 0.85879 13.8419 0.985194 13.9846C1.1116 14.1273 1.26955 14.2385 1.4465 14.3094L3.03712 14.8484C3.43111 14.9635 3.84708 14.9818 4.24962 14.9016L6.20275 14.4187C6.90275 14.8031 7.62306 15.3172 8.27462 15.7625C8.35307 16.0155 8.3665 16.2842 8.31369 16.5438C8.07775 17.2688 7.53244 19.4109 7.06369 19.9641L4.99493 22.3078H17.1637L16.284 20.875C15.7731 19.7813 15.4824 18.2047 15.4824 18.2047C15.4218 17.9095 15.4637 17.6025 15.6012 17.3344L16.7152 15.1469C16.8481 15.0438 19.134 13.7969 19.134 13.7969C19.4465 13.6406 19.659 13.7484 19.9934 13.8469L21.3043 14.3422C21.9715 14.6281 22.6402 14.5172 22.9731 14.1234L24.2996 12.5266C24.4113 12.3746 24.484 12.1975 24.5112 12.0109C24.5385 11.8243 24.5195 11.6338 24.4559 11.4563" fill="black"/>
</svg>
