<svg width="25" height="25" viewBox="0 0 25 25" fill="none" xmlns="http://www.w3.org/2000/svg">
<g clip-path="url(#clip0_2043_73676)">
<path d="M14.7031 11.1251H13.1656L13.9344 9.79383L14.7031 8.46258H11.6297L12.3969 7.13133L13.1656 5.80008L13.9344 7.13133L14.7031 8.46258L15.4719 7.13133L16.2391 5.80008L17.0078 7.13133L17.7766 8.45633L18.5453 9.78758L19.3141 11.1188H16.2391L17.0078 12.4485L17.7766 13.7798H14.7031L15.4719 12.4485L16.2391 11.1188L14.7031 11.1251ZM22.4281 22.2188L18.9828 18.3126C20.26 17.0256 21.1277 15.3892 21.4763 13.6099C21.825 11.8305 21.639 9.98775 20.9419 8.31389C20.2449 6.64004 19.0678 5.21002 17.5593 4.2041C16.0507 3.19817 14.278 2.66138 12.4648 2.66138C10.6516 2.66138 8.87902 3.19817 7.37044 4.2041C5.86185 5.21002 4.68483 6.64004 3.98775 8.31389C3.29067 9.98775 3.10474 11.8305 3.45338 13.6099C3.80203 15.3892 4.66965 17.0256 5.94687 18.3126L2.5 22.2188L7.52031 22.1907L8.44531 20.0954C9.69753 20.7052 11.0721 21.022 12.4648 21.022C13.8576 21.022 15.2322 20.7052 16.4844 20.0954L17.4094 22.1907L22.4281 22.2188Z" fill="black"/>
</g>
<defs>
<clipPath id="clip0_2043_73676">
<rect width="19.9281" height="19.5625" fill="white" transform="translate(2.5 2.65625)"/>
</clipPath>
</defs>
</svg>
