<svg width="25" height="25" viewBox="0 0 25 25" fill="none" xmlns="http://www.w3.org/2000/svg">
<path d="M16.2422 12.0359H13.9937V10.6297H16.25L16.2422 12.0359ZM16.2422 14.8219H13.9937V13.4156H16.25L16.2422 14.8219ZM16.2422 17.6078H13.9937V16.2016H16.25L16.2422 17.6078ZM13.5406 8.76094H11.5719V7.4875C11.5719 7.22643 11.6756 6.97605 11.8602 6.79144C12.0448 6.60684 12.2952 6.50312 12.5563 6.50312C12.8173 6.50312 13.0677 6.60684 13.2523 6.79144C13.4369 6.97605 13.5406 7.22643 13.5406 7.4875V8.76094ZM11.1266 12.0422H8.87031V10.6359H11.1266V12.0422ZM11.1266 14.8281H8.87031V13.4219H11.1266V14.8281ZM11.1266 17.6141H8.87031V16.2078H11.1266V17.6141ZM18.1125 18.6969V9.59219H19.8422V8.76094H19.4156V5.79219H19.8422L19.4156 4.89375H18.1094V4.31406H18.4734L17.6766 2.63438L16.8812 4.30938H17.2453V4.88906H14.8672V4.30938H15.2938L14.8672 3.41563H14.125V2.68906L12.5312 1.09375L10.9859 2.63438V3.41563H10.1953L9.775 4.30938H10.2016V4.88906H7.87344V4.30938H8.2375L7.43125 2.63438L6.63437 4.30938H6.99844V4.88906H5.69687L5.27031 5.7875H5.69687V8.75625H5.27031V9.5875H7V18.6859H4.84375V19.5172H5.27031V23.8687H19.8422V19.5219H20.2688V18.6906L18.1125 18.6969Z" fill="black"/>
</svg>
