<svg width="25" height="25" viewBox="0 0 25 25" fill="none" xmlns="http://www.w3.org/2000/svg">
<g clip-path="url(#clip0_2043_73673)">
<path d="M20.6281 19.5891H19.9813V19.0797H20.2781L19.1844 15.9547L18.0906 19.0797H18.3406V19.5891H17.4219L17.4031 15.3125H17.9578L16.8641 11.2656L15.75 14.3625V8.8625L16.2188 7.10469H15.75V6.275H16.1906L14.9406 1.35156L17.1641 0.676563L14.9312 0V1.30937L13.6531 6.275H14.0953V7.10469H13.6266L14.0953 8.8625V11.7188L13.9719 11.3031L12.9359 8.06406H11.5391L10.6516 11.2375L10.1344 9.3625L9.1625 13.4406H9.57344L9.62656 16.7953L8.12188 12.7531L6.76719 16.8375H7.32188V19.5891H6.45781V19.0797H6.75625L5.6625 15.9547L4.56875 19.1984H4.86094V19.5875H4.21875L4.86562 21.2734L4.25938 25.0594H11.1797V22.2563C11.1741 21.7467 11.3312 21.2486 11.6281 20.8344C11.8338 20.5515 12.1073 20.3247 12.4234 20.175C12.7403 20.3243 13.0144 20.5511 13.2203 20.8344C13.5172 21.2486 13.6743 21.7467 13.6688 22.2563V25.0609H20.5891L19.9828 21.275L20.6281 19.5891Z" fill="black"/>
</g>
<defs>
<clipPath id="clip0_2043_73673">
<rect width="25" height="25" fill="white"/>
</clipPath>
</defs>
</svg>
